<svg width="18" height="18" viewBox="0 0 18 18" fill="none" xmlns="http://www.w3.org/2000/svg">
<g clip-path="url(#clip0_844_1176)">
<path d="M12.6062 0.429688H5.39381C2.41706 0.429688 0 2.84675 0 5.8235V12.1764C0 15.1531 2.41706 17.5702 5.39381 17.5702H12.6056C15.5824 17.5702 17.9994 15.1531 17.9994 12.1764V5.8235C18 2.84675 15.5829 0.429688 12.6062 0.429688ZM8.98987 13.2749C6.63244 13.2749 4.71488 11.3568 4.71488 8.99994C4.71488 6.64306 6.633 4.72494 8.98987 4.72494C11.3468 4.72494 13.2649 6.64306 13.2649 8.99994C13.2649 11.3568 11.3473 13.2749 8.98987 13.2749ZM14.0844 5.06413C13.4854 5.06413 13.0056 4.58488 13.0056 3.98525C13.0056 3.38563 13.4848 2.90638 14.0844 2.90638C14.6835 2.90638 15.1633 3.38563 15.1633 3.98525C15.1633 4.58488 14.6638 5.06413 14.0844 5.06413Z" fill="#CEE0F5"/>
</g>
<defs>
<clipPath id="clip0_844_1176">
<rect width="18" height="18" fill="white"/>
</clipPath>
</defs>
</svg>
