<svg width="18" height="18" viewBox="0 0 18 18" fill="none" xmlns="http://www.w3.org/2000/svg">
<g clip-path="url(#clip0_844_1164)">
<path d="M17.7924 1.6396C17.6181 1.48716 17.3998 1.46522 17.2035 1.53047C14.0422 2.68585 4.36106 6.32747 0.414562 7.78829C0.174375 7.87547 0 8.11566 0 8.3986C0 8.66016 0.196312 8.90035 0.435937 8.9656C2.22412 9.48872 4.55681 10.2301 4.55681 10.2301C4.55681 10.2301 5.64694 13.5224 6.21394 15.1795C6.27919 15.3978 6.45356 15.5502 6.67181 15.6155C6.89006 15.6593 7.10775 15.6155 7.28212 15.463C8.19788 14.5906 9.61537 13.2828 9.61537 13.2828C9.61537 13.2828 12.2974 15.2453 13.8021 16.3355C14.0417 16.5098 14.3471 16.5537 14.6306 16.4446C14.9141 16.3355 15.1104 16.1178 15.1757 15.8123C15.8299 12.7597 17.3998 4.99716 17.9888 2.20603C18.0326 2.01028 17.9454 1.79203 17.7924 1.6396ZM14.6964 4.4521C11.9273 6.95972 7.065 11.3422 7.065 11.3422L6.7815 13.9803L5.517 9.81554C5.517 9.81554 11.2298 6.17391 14.4349 4.12472C14.5221 4.05947 14.6531 4.08085 14.7184 4.1686C14.7836 4.25578 14.7836 4.38685 14.6964 4.4521Z" fill="#CEE0F5"/>
</g>
<defs>
<clipPath id="clip0_844_1164">
<rect width="18" height="18" fill="white"/>
</clipPath>
</defs>
</svg>
