<svg width="18" height="18" viewBox="0 0 18 18" fill="none" xmlns="http://www.w3.org/2000/svg">
<path d="M16.6776 4.33266C16.2866 4.44066 15.9789 4.42379 15.9789 4.42379L15.9913 4.34954C16.3547 4.05873 17.2721 3.16548 17.3931 2.7481C17.4459 2.56754 17.3835 2.5051 17.3829 2.49948L16.2124 2.99673L15.2325 3.43885C14.5564 2.72279 13.5321 2.2666 12.3874 2.2666C10.35 2.2666 8.69906 3.70998 8.69906 5.49029C8.69906 5.81598 8.74744 6.40998 8.84925 6.70641C8.84925 6.79979 8.85319 6.61304 8.84925 6.70641C7.5375 6.67041 5.85619 6.1321 4.35881 5.37385C1.40569 3.87704 1.22063 2.84148 1.22063 2.84148C0.756563 3.33423 0.5175 4.96548 0.98775 6.24404C1.28925 7.06248 2.32369 7.79766 2.32369 7.79766C2.32369 7.79766 1.86131 7.8061 1.37644 7.64241C0.891563 7.47816 0.70875 7.31616 0.70875 7.31616C0.420187 8.01929 0.998437 9.27423 1.99856 10.1748C2.58075 10.7002 3.645 11.0292 3.645 11.0292L1.98225 11.0754C1.88888 12.6909 5.37019 13.651 5.37019 13.651C4.34981 14.4357 3.16575 14.9139 1.89675 14.9139C1.23919 14.9139 0.603 14.8154 0 14.6354C1.67681 16.0169 3.83175 16.9704 6.17512 16.8472C14.8185 16.3932 15.8968 11.3043 16.0678 5.92848L16.0763 5.93916C16.0763 5.93916 16.3676 5.79404 16.9903 5.17079C17.6119 4.54866 18 3.82023 18 3.82023C18 3.82023 17.0679 4.22466 16.6776 4.33266Z" fill="#CEE0F5"/>
</svg>
