<svg width="22" height="22" viewBox="0 0 22 22" fill="none" xmlns="http://www.w3.org/2000/svg">
<path d="M21.0833 8.90094C21.1287 7.58887 20.8417 6.28662 20.2492 5.11511C19.8471 4.63441 19.2891 4.31001 18.6725 4.19844C16.1219 3.96701 13.5607 3.87215 11 3.91427C8.44858 3.87024 5.89663 3.96203 3.35498 4.18927C2.85249 4.28068 2.38746 4.51638 2.01665 4.86761C1.19165 5.62844 1.09998 6.93011 1.00832 8.03011C0.87532 10.0079 0.87532 11.9923 1.00832 13.9701C1.03484 14.5892 1.12702 15.2038 1.28332 15.8034C1.39384 16.2664 1.61746 16.6948 1.93415 17.0501C2.30748 17.4199 2.78334 17.669 3.29998 17.7651C5.27624 18.009 7.26752 18.1101 9.25832 18.0676C12.4667 18.1134 15.2808 18.0676 18.6083 17.8109C19.1377 17.7208 19.6269 17.4714 20.0108 17.0959C20.2675 16.8392 20.4591 16.5249 20.57 16.1793C20.8978 15.1733 21.0588 14.1205 21.0467 13.0626C21.0833 12.5493 21.0833 9.45094 21.0833 8.90094ZM8.92832 13.6126V7.93844L14.355 10.7893C12.8333 11.6326 10.8258 12.5859 8.92832 13.6126Z" fill="#CEE0F5"/>
</svg>
