<svg width="84" height="84" viewBox="0 0 84 84" fill="none" xmlns="http://www.w3.org/2000/svg">
<path d="M68.607 53.0664C69.3 52.3699 69.65 51.4529 69.65 50.5394C69.65 49.6224 69.3 48.7124 68.607 48.0124L44.527 23.9324C43.8515 23.2604 42.9555 22.8894 42 22.8894C41.0445 22.8894 40.1485 23.2604 39.4765 23.9324L15.3965 48.0124C14.7245 48.6844 14.35 49.5804 14.35 50.5394C14.35 51.4914 14.721 52.3874 15.3965 53.0664C16.7895 54.4559 19.0575 54.4559 20.4505 53.0664L42 31.5099L63.553 53.0664C64.9495 54.4559 67.214 54.4559 68.607 53.0664Z" fill="#E6A209"/>
</svg>
