<svg width="22" height="22" viewBox="0 0 22 22" fill="none" xmlns="http://www.w3.org/2000/svg">
<path d="M17.7533 8.06445L11.0041 14.8143L4.25494 8.06445C4.08856 7.89808 3.86719 7.80664 3.63138 7.80664C3.39556 7.80664 3.17419 7.89808 3.00781 8.06445C2.84144 8.23083 2.75 8.4522 2.75 8.6887C2.75 8.9252 2.84144 9.14589 3.00781 9.31158L10.3813 16.685C10.5476 16.8514 10.7683 16.9428 11.0041 16.9428C11.2399 16.9428 11.4606 16.8514 11.6277 16.685L19.0004 9.31227C19.3332 8.97952 19.3332 8.39652 19.0004 8.06445C18.6567 7.72139 18.0971 7.72139 17.7533 8.06445Z" fill="#DADADA"/>
</svg>
